<svg id="visual" viewBox="0 0 900 600" width="900" height="600" xmlns="http://www.w3.org/2000/svg" xmlns:xlink="http://www.w3.org/1999/xlink" version="1.1"><rect x="0" y="0" width="900" height="600" fill="transparent"></rect><g transform="translate(462.0506973798336 291.51691119627867)"><path d="M172.8 -219.2C220.2 -203.4 252.3 -147.9 279.4 -85.7C306.6 -23.6 328.7 45.2 312 102.8C295.3 160.4 239.6 206.8 181.1 227.3C122.7 247.8 61.3 242.4 6 234.2C-49.4 226 -98.7 214.9 -156 194C-213.2 173.1 -278.3 142.3 -313 89C-347.8 35.7 -352.2 -40.1 -320.5 -93.7C-288.7 -147.4 -220.8 -178.9 -161.3 -190.8C-101.9 -202.7 -50.9 -195.1 5.9 -203.2C62.7 -211.3 125.4 -235.1 172.8 -219.2" fill="#689606"></path></g></svg>