<svg id="visual" viewBox="0 0 900 600" width="900" height="400" xmlns="http://www.w3.org/2000/svg" xmlns:xlink="http://www.w3.org/1999/xlink" version="1.1"><rect x="0" y="0" width="900" height="600" fill="transparent"></rect><g transform="translate(457.44952400187856 302.41402381289095)"><path d="M172.7 -194.7C216.9 -168.8 240.9 -107.7 241.1 -50.8C241.3 6.2 217.6 59.1 188.4 107.8C159.1 156.4 124.2 200.8 83.3 205.7C42.4 210.5 -4.4 175.7 -55.4 155.7C-106.4 135.6 -161.4 130.3 -201.6 98.2C-241.8 66.1 -267.2 7.3 -251.1 -37.4C-235.1 -82.1 -177.6 -112.7 -128.9 -137.8C-80.1 -162.8 -40.1 -182.4 12.1 -196.8C64.3 -211.3 128.6 -220.5 172.7 -194.7" fill="#dfc8a4"></path></g></svg>